<svg width="58" height="89" viewBox="0 0 58 89" fill="none" xmlns="http://www.w3.org/2000/svg">
<path d="M8.26014 3.31289C6.52927 3.31289 3.62498 3.63832 3.62498 5.81064V51.8533L21.5435 33.8013C23.9407 31.4011 27.85 31.398 30.2533 33.7879L39.8624 43.3324C45.2224 39.8645 48.7611 34.3043 49.6091 27.9804C50.4263 21.8761 48.5866 15.8961 44.4288 11.1439C40.0729 6.16791 33.7849 3.31289 27.1755 3.31289H8.26014ZM38.7629 88.1051H5.33224C2.39201 88.1051 0 85.7131 0 82.7708V77.3174C0 73.6617 1.5122 70.1147 4.14855 67.5841L20.0118 52.3573C22.912 49.5783 27.5543 49.6502 30.3621 52.5206L44.3056 66.7669C44.9442 67.4198 44.9329 68.468 44.2799 69.1086C43.628 69.7513 42.5819 69.74 41.9382 69.083L27.9937 54.8366C26.4497 53.2597 23.8955 53.2177 22.3053 54.7483L6.44201 69.9741C4.45243 71.8825 3.31289 74.5599 3.31289 77.3174V82.7708C3.31289 83.8857 4.21836 84.7932 5.33224 84.7932H38.7629C41.4496 84.7932 43.8282 84.2604 45.8353 83.2092C50.1717 80.9383 53.0585 76.7364 53.7607 71.6823C54.5369 66.0781 52.5144 60.3752 48.3464 56.4299L27.9178 36.1368C26.807 35.0302 24.997 35.0301 23.8862 36.143L5.87326 54.156C4.93494 55.0892 3.54182 55.3643 2.3222 54.8633C1.10156 54.3562 0.31209 53.1756 0.31209 51.8533V5.81064C0.31209 3.00285 2.40022 7.62939e-06 8.26014 7.62939e-06H27.1755C34.7406 7.62939e-06 41.9362 3.26772 46.9214 8.9644C51.7167 14.4434 53.8388 21.3536 52.8922 28.4198C51.9477 35.4716 48.1 41.699 42.2596 45.7152L50.6521 54.0523C55.5655 58.7039 57.9647 65.4765 57.0408 72.1382C56.1918 78.265 52.6674 83.3693 47.3721 86.1432C44.8867 87.445 41.9896 88.1051 38.7629 88.1051Z" fill="white"/>
</svg>
