<svg width="21" height="17" viewBox="0 0 21 17" fill="none" xmlns="http://www.w3.org/2000/svg">
<path d="M15.75 0C17.2688 0 18.5 1.23122 18.5 2.75C18.5 4.26878 17.2688 5.5 15.75 5.5C14.2312 5.5 13 4.26878 13 2.75C13 1.23122 14.2312 0 15.75 0Z" fill="#E7600E"/>
<path d="M15.75 6.5C17.3061 6.5 18.7166 7.1407 19.7842 8.1748C20.304 8.6784 20.5 9.3858 20.5 10.0178V10.75C20.5 11.1642 20.1642 11.5 19.75 11.5H14.5652C14.0975 11.2034 13.5969 10.9534 13.0701 10.7569C14.0945 9.9321 14.75 8.6676 14.75 7.25C14.75 7.0287 14.734 6.8112 14.7032 6.5984C15.0428 6.5338 15.3926 6.5 15.75 6.5Z" fill="#E7600E"/>
<path d="M5.80924 13.1451C6.9995 12.1203 8.5531 11.5 10.25 11.5C11.9469 11.5 13.5005 12.1203 14.6908 13.1451C15.2677 13.6419 15.5 14.3591 15.5 15.0178V15.75C15.5 16.1642 15.1642 16.5 14.75 16.5H5.75C5.33579 16.5 5 16.1642 5 15.75V15.0178C5 14.3591 5.23232 13.6419 5.80924 13.1451Z" fill="#E7600E"/>
<path d="M7 7.25C7 5.45507 8.4551 4 10.25 4C12.0449 4 13.5 5.45507 13.5 7.25C13.5 9.0449 12.0449 10.5 10.25 10.5C8.4551 10.5 7 9.0449 7 7.25Z" fill="#E7600E"/>
<path d="M4.75 0C3.23122 0 2 1.23122 2 2.75C2 4.26878 3.23122 5.5 4.75 5.5C6.26878 5.5 7.5 4.26878 7.5 2.75C7.5 1.23122 6.26878 0 4.75 0Z" fill="#E7600E"/>
<path d="M4.75 6.5C3.19386 6.5 1.78337 7.1407 0.71583 8.1748C0.19596 8.6784 0 9.3858 0 10.0178V10.75C0 11.1642 0.33579 11.5 0.75 11.5H5.93481C6.40248 11.2034 6.90313 10.9534 7.42988 10.7569C6.40548 9.9321 5.75 8.6676 5.75 7.25C5.75 7.0287 5.76598 6.8112 5.79683 6.5984C5.45717 6.5338 5.10743 6.5 4.75 6.5Z" fill="#E7600E"/>
</svg>
