<svg width="16" height="20" viewBox="0 0 16 20" fill="none" xmlns="http://www.w3.org/2000/svg">
<path d="M11.55 4.55C11.55 6.75914 9.75915 8.55 7.55005 8.55C5.34091 8.55 3.55005 6.75914 3.55005 4.55C3.55005 2.34086 5.34091 0.549999 7.55005 0.549999C9.75915 0.549999 11.55 2.34086 11.55 4.55Z" fill="#E7600E"/>
<path d="M9.55005 11.55H5.55005C2.78863 11.55 0.550049 13.7886 0.550049 16.55C0.550049 17.6546 1.44548 18.55 2.55005 18.55H12.55C13.6546 18.55 14.55 17.6546 14.55 16.55C14.55 13.7886 12.3114 11.55 9.55005 11.55Z" fill="#E7600E"/>
<path d="M11.55 4.55H11C11 6.45538 9.4554 8 7.55005 8V8.55V9.1C10.0629 9.1 12.1 7.0629 12.1 4.55H11.55ZM7.55005 8.55V8C5.64467 8 4.10005 6.45538 4.10005 4.55H3.55005H3.00005C3.00005 7.0629 5.03715 9.1 7.55005 9.1V8.55ZM3.55005 4.55H4.10005C4.10005 2.64462 5.64467 1.1 7.55005 1.1V0.549999V-7.7486e-07C5.03715 -7.7486e-07 3.00005 2.0371 3.00005 4.55H3.55005ZM7.55005 0.549999V1.1C9.4554 1.1 11 2.64462 11 4.55H11.55H12.1C12.1 2.0371 10.0629 -7.7486e-07 7.55005 -7.7486e-07V0.549999ZM9.55005 11.55V11H5.55005V11.55V12.1H9.55005V11.55ZM5.55005 11.55V11C2.48487 11 4.88162e-05 13.4848 4.88162e-05 16.55H0.550049H1.10005C1.10005 14.0924 3.09239 12.1 5.55005 12.1V11.55ZM0.550049 16.55H4.88162e-05C4.88162e-05 17.9584 1.14173 19.1 2.55005 19.1V18.55V18C1.74923 18 1.10005 17.3508 1.10005 16.55H0.550049ZM2.55005 18.55V19.1H12.55V18.55V18H2.55005V18.55ZM12.55 18.55V19.1C13.9584 19.1 15.1 17.9584 15.1 16.55H14.55H14C14 17.3508 13.3509 18 12.55 18V18.55ZM14.55 16.55H15.1C15.1 13.4848 12.6152 11 9.55005 11V11.55V12.1C12.0077 12.1 14 14.0924 14 16.55H14.55Z" fill="#E7600E"/>
</svg>
