<svg width="16" height="16" viewBox="0 0 16 16" fill="none" xmlns="http://www.w3.org/2000/svg">
<path fill-rule="evenodd" clip-rule="evenodd" d="M11.8334 8.16663C12.2016 8.16663 12.5001 8.46509 12.5001 8.83329V9.26329C12.8585 9.37003 13.1807 9.56056 13.4439 9.81169L13.836 9.58769C14.1557 9.40503 14.5629 9.51609 14.7456 9.83576C14.9283 10.1554 14.8172 10.5627 14.4975 10.7454L14.1059 10.9691C14.1457 11.1399 14.1667 11.3176 14.1667 11.5C14.1667 11.6822 14.1457 11.8599 14.106 12.0306L14.4975 12.2544C14.8172 12.437 14.9283 12.8443 14.7456 13.164C14.5629 13.4836 14.1557 13.5947 13.836 13.412L13.4441 13.1881C13.1808 13.4394 12.8586 13.6299 12.5001 13.7366V14.1666C12.5001 14.5348 12.2016 14.8333 11.8334 14.8333C11.4652 14.8333 11.1667 14.5348 11.1667 14.1666V13.7366C10.8083 13.6299 10.486 13.4393 10.2227 13.1881L9.83086 13.412C9.51119 13.5947 9.10393 13.4836 8.92126 13.164C8.73859 12.8443 8.84966 12.437 9.16933 12.2544L9.56086 12.0306C9.52106 11.8599 9.50006 11.6822 9.50006 11.5C9.50006 11.3176 9.52113 11.1399 9.56086 10.9691L9.16933 10.7454C8.84966 10.5627 8.73859 10.1554 8.92126 9.83576C9.10393 9.51609 9.51119 9.40503 9.83086 9.58769L10.2229 9.81169C10.4861 9.56056 10.8083 9.37003 11.1667 9.26329V8.83329C11.1667 8.46509 11.4652 8.16663 11.8334 8.16663ZM11.8334 10.5C11.4626 10.5 11.138 10.7015 10.9647 11.0042C10.8813 11.1497 10.8334 11.3182 10.8334 11.5C10.8334 11.6816 10.8813 11.8502 10.9646 11.9956C11.1379 12.2984 11.4625 12.5 11.8334 12.5C12.2043 12.5 12.5289 12.2984 12.7023 11.9956C12.7856 11.8502 12.8334 11.6816 12.8334 11.5C12.8334 11.3182 12.7855 11.1497 12.7022 11.0042C12.5288 10.7015 12.2043 10.5 11.8334 10.5Z" fill="#E7600E"/>
<path d="M8.15622 13.5H1.66669C1.39055 13.5 1.16669 13.2761 1.16669 13C1.16669 10.5489 2.8735 8.49643 5.16342 7.96629C3.80573 7.48489 2.83335 6.18933 2.83335 4.66663C2.83335 2.73363 4.40035 1.16663 6.33335 1.16663C8.26635 1.16663 9.83335 2.73363 9.83335 4.66663C9.83335 6.18933 8.86095 7.48489 7.50329 7.96629C8.11629 8.10823 8.68749 8.35923 9.19535 8.69776C8.78915 8.78216 8.41962 9.03376 8.19762 9.42229C7.80382 10.1114 8.01669 10.9814 8.66775 11.4146V11.5852C8.04082 12.0023 7.82022 12.8243 8.15622 13.5Z" fill="#E7600E"/>
</svg>
